<svg width="40" height="40" viewBox="0 0 40 40" fill="none" xmlns="http://www.w3.org/2000/svg">
<circle cx="20" cy="20" r="20" fill="#EDFEF5"/>
<path d="M16.4821 29.6933C17.278 28.8974 18.3576 28.4502 19.4833 28.4502H20.5172C21.6428 28.4502 22.7224 28.8974 23.5183 29.6933L23.9954 30.1704C24.0802 30.2552 24.0201 30.4002 23.9002 30.4002H16.1002C15.9803 30.4002 15.9202 30.2552 16.005 30.1704L16.4821 29.6933Z" stroke="#20BECE" stroke-width="1.5" stroke-linecap="round" stroke-linejoin="round"/>
<path d="M20 23.9004V28.4504" stroke="#20BECE" stroke-width="1.5" stroke-linecap="round" stroke-linejoin="round"/>
<path d="M14.475 9.59961V15.5948C14.475 18.1899 15.6318 20.6499 17.6305 22.305C18.3579 22.9075 19.1588 23.3739 20.0001 23.7044C20.8413 23.3739 21.6422 22.9075 22.3696 22.305C24.3683 20.6499 25.5251 18.1899 25.5251 15.5948V9.59976H14.5166C14.5028 9.59976 14.4889 9.59971 14.475 9.59961Z" stroke="#20BECE" stroke-width="1.5" stroke-linecap="round" stroke-linejoin="round"/>
<path d="M14.4747 12.2002H10.5354C10.4816 12.3619 10.435 12.5266 10.3958 12.6941C9.9967 14.3989 10.4297 16.2135 11.5383 17.5688C12.5205 18.7696 13.9548 19.5333 15.4884 19.6741" stroke="#20BECE" stroke-width="1.5" stroke-linecap="round" stroke-linejoin="round"/>
<path d="M25.5249 12.2002H29.4643C29.518 12.3619 29.5646 12.5266 29.6038 12.6941C30.0029 14.3989 29.5699 16.2135 28.4613 17.5688C27.4792 18.7696 26.0448 19.5333 24.5112 19.6741" stroke="#20BECE" stroke-width="1.5" stroke-linecap="round" stroke-linejoin="round"/>
</svg>
