<svg width="1440" height="653" viewBox="0 0 1440 653" fill="none" xmlns="http://www.w3.org/2000/svg">
<path d="M1428.67 37.8862L1428.23 37.6537L1428.67 37.8862ZM1336.62 113.042L1337.12 113.002L1336.62 113.042ZM1408.85 177.132L1409.35 177.107L1408.85 177.132ZM1229 232L1234.08 234.736L1233.91 228.965L1229 232ZM1234.87 232.297C1236.03 232.249 1237.36 232.191 1238.84 232.122L1238.79 231.123C1237.32 231.192 1235.99 231.25 1234.82 231.297L1234.87 232.297ZM1242.82 231.925C1244.08 231.859 1245.41 231.787 1246.82 231.706L1246.76 230.708C1245.36 230.788 1244.02 230.861 1242.76 230.927L1242.82 231.925ZM1250.8 231.468C1252.06 231.389 1253.37 231.305 1254.72 231.215L1254.65 230.217C1253.31 230.307 1252 230.391 1250.74 230.47L1250.8 231.468ZM1258.71 230.938C1260 230.845 1261.32 230.747 1262.67 230.644L1262.59 229.647C1261.24 229.75 1259.93 229.848 1258.64 229.94L1258.71 230.938ZM1266.62 230.332C1267.92 230.226 1269.25 230.114 1270.6 229.997L1270.52 229.001C1269.17 229.118 1267.84 229.229 1266.53 229.335L1266.62 230.332ZM1274.53 229.648C1275.84 229.528 1277.18 229.403 1278.52 229.273L1278.43 228.278C1277.08 228.408 1275.75 228.533 1274.44 228.652L1274.53 229.648ZM1282.44 228.885C1283.76 228.751 1285.08 228.612 1286.42 228.468L1286.32 227.474C1284.98 227.618 1283.65 227.756 1282.34 227.89L1282.44 228.885ZM1290.34 228.037C1291.66 227.889 1292.98 227.736 1294.31 227.578L1294.19 226.585C1292.87 226.742 1291.54 226.895 1290.23 227.043L1290.34 228.037ZM1298.24 227.1C1299.55 226.937 1300.87 226.768 1302.19 226.595L1302.06 225.603C1300.74 225.776 1299.42 225.945 1298.11 226.108L1298.24 227.1ZM1306.12 226.067C1307.43 225.887 1308.74 225.702 1310.06 225.512L1309.91 224.522C1308.6 224.712 1307.29 224.897 1305.98 225.077L1306.12 226.067ZM1313.99 224.93C1315.3 224.731 1316.6 224.528 1317.91 224.319L1317.76 223.332C1316.45 223.54 1315.14 223.743 1313.84 223.941L1313.99 224.93ZM1321.84 223.678C1323.14 223.459 1324.45 223.235 1325.75 223.005L1325.58 222.02C1324.28 222.249 1322.98 222.473 1321.67 222.691L1321.84 223.678ZM1329.66 222.299C1330.97 222.057 1332.27 221.809 1333.57 221.556L1333.38 220.574C1332.08 220.827 1330.78 221.074 1329.48 221.315L1329.66 222.299ZM1337.46 220.777C1338.77 220.509 1340.07 220.234 1341.36 219.954L1341.15 218.977C1339.86 219.256 1338.56 219.53 1337.26 219.797L1337.46 220.777ZM1345.22 219.093C1346.53 218.794 1347.83 218.489 1349.11 218.177L1348.88 217.205C1347.6 217.516 1346.3 217.82 1345 218.118L1345.22 219.093ZM1352.95 217.22C1354.25 216.886 1355.54 216.544 1356.82 216.196L1356.56 215.231C1355.28 215.578 1354 215.918 1352.7 216.251L1352.95 217.22ZM1360.62 215.125C1361.92 214.749 1363.2 214.365 1364.46 213.973L1364.17 213.018C1362.91 213.408 1361.63 213.791 1360.34 214.165L1360.62 215.125ZM1368.22 212.767C1369.5 212.339 1370.77 211.903 1372.02 211.457L1371.68 210.515C1370.44 210.959 1369.18 211.393 1367.9 211.818L1368.22 212.767ZM1375.71 210.082C1376.98 209.591 1378.23 209.09 1379.44 208.577L1379.06 207.656C1377.85 208.164 1376.61 208.662 1375.35 209.149L1375.71 210.082ZM1383.07 206.979C1384.31 206.411 1385.51 205.83 1386.67 205.236L1386.22 204.345C1385.06 204.933 1383.88 205.508 1382.66 206.071L1383.07 206.979ZM1390.2 203.336C1391.37 202.67 1392.49 201.988 1393.57 201.29L1393.03 200.45C1391.97 201.137 1390.86 201.81 1389.7 202.468L1390.2 203.336ZM1396.9 198.983C1398 198.158 1399.04 197.313 1400.01 196.446L1399.34 195.699C1398.39 196.546 1397.38 197.373 1396.3 198.183L1396.9 198.983ZM1402.85 193.637C1403.78 192.62 1404.61 191.574 1405.35 190.499L1404.53 189.932C1403.82 190.967 1403.01 191.978 1402.11 192.966L1402.85 193.637ZM1407.38 186.98C1407.96 185.744 1408.42 184.472 1408.75 183.166L1407.78 182.921C1407.47 184.163 1407.03 185.374 1406.48 186.556L1407.38 186.98ZM1409.35 179.168C1409.38 178.489 1409.38 177.802 1409.35 177.107L1408.35 177.157C1408.38 177.82 1408.38 178.474 1408.35 179.12L1409.35 179.168ZM1409.35 177.107C1409.31 176.428 1409.25 175.762 1409.15 175.109L1408.16 175.253C1408.25 175.875 1408.31 176.509 1408.35 177.157L1409.35 177.107ZM1408.2 171.248C1407.76 169.993 1407.2 168.791 1406.53 167.636L1405.67 168.135C1406.3 169.24 1406.83 170.386 1407.25 171.581L1408.2 171.248ZM1404.28 164.364C1403.47 163.356 1402.58 162.387 1401.62 161.452L1400.92 162.17C1401.86 163.079 1402.72 164.018 1403.5 164.99L1404.28 164.364ZM1398.66 158.852C1397.66 158.047 1396.6 157.266 1395.5 156.505L1394.93 157.328C1396.02 158.076 1397.05 158.843 1398.03 159.631L1398.66 158.852ZM1392.21 154.363C1391.11 153.69 1389.99 153.032 1388.83 152.386L1388.35 153.259C1389.49 153.899 1390.6 154.55 1391.69 155.215L1392.21 154.363ZM1385.4 150.529C1384.25 149.932 1383.09 149.342 1381.92 148.759L1381.47 149.655C1382.64 150.236 1383.8 150.822 1384.93 151.416L1385.4 150.529ZM1378.41 147.049C1377.24 146.489 1376.06 145.931 1374.89 145.375L1374.46 146.279C1375.64 146.835 1376.81 147.391 1377.98 147.951L1378.41 147.049ZM1371.36 143.713C1370.19 143.158 1369.01 142.602 1367.85 142.042L1367.41 142.944C1368.58 143.505 1369.76 144.062 1370.94 144.618L1371.36 143.713ZM1364.35 140.339C1363.18 139.759 1362.02 139.174 1360.89 138.581L1360.42 139.467C1361.57 140.064 1362.73 140.653 1363.91 141.235L1364.35 140.339ZM1357.47 136.741C1356.33 136.101 1355.21 135.451 1354.13 134.786L1353.6 135.639C1354.7 136.311 1355.83 136.969 1356.99 137.614L1357.47 136.741ZM1350.87 132.682C1349.79 131.938 1348.75 131.176 1347.76 130.392L1347.14 131.175C1348.15 131.975 1349.21 132.751 1350.31 133.506L1350.87 132.682ZM1344.86 127.872C1343.92 126.97 1343.04 126.038 1342.25 125.074L1341.48 125.711C1342.3 126.708 1343.2 127.668 1344.17 128.596L1344.86 127.872ZM1340.03 121.962C1339.38 120.867 1338.82 119.731 1338.37 118.548L1337.43 118.904C1337.91 120.145 1338.49 121.334 1339.18 122.476L1340.03 121.962ZM1337.36 114.899C1337.26 114.279 1337.17 113.647 1337.12 113.002L1336.13 113.082C1336.18 113.758 1336.26 114.421 1336.38 115.072L1337.36 114.899ZM1337.12 113.002C1337.07 112.347 1337.04 111.704 1337.04 111.072L1336.04 111.079C1336.04 111.736 1336.07 112.403 1336.13 113.082L1337.12 113.002ZM1337.31 107.292C1337.51 106.021 1337.81 104.796 1338.2 103.613L1337.26 103.296C1336.84 104.532 1336.53 105.812 1336.32 107.139L1337.31 107.292ZM1339.71 100.126C1340.29 99.0175 1340.97 97.9454 1341.73 96.9062L1340.92 96.3157C1340.14 97.3911 1339.43 98.5038 1338.82 99.658L1339.71 100.126ZM1344.17 93.9684C1345.03 93.0537 1345.95 92.1646 1346.93 91.2981L1346.27 90.5485C1345.27 91.4341 1344.32 92.3454 1343.44 93.2856L1344.17 93.9684ZM1349.91 88.8649C1350.92 88.1047 1351.97 87.3614 1353.06 86.6326L1352.51 85.801C1351.4 86.5395 1350.33 87.2942 1349.31 88.0675L1349.91 88.8649ZM1356.32 84.5658C1357.41 83.9112 1358.53 83.2673 1359.67 82.6322L1359.19 81.7579C1358.03 82.3981 1356.9 83.0479 1355.81 83.7094L1356.32 84.5658ZM1363.08 80.8041C1364.21 80.2162 1365.36 79.6345 1366.54 79.0574L1366.09 78.1605C1364.92 78.7403 1363.76 79.3251 1362.62 79.9166L1363.08 80.8041ZM1370.02 77.3715C1371.18 76.8216 1372.36 76.2744 1373.54 75.7284L1373.12 74.8206C1371.93 75.3677 1370.76 75.9163 1369.6 76.468L1370.02 77.3715ZM1377.07 74.1122C1378.24 73.5783 1379.42 73.0442 1380.61 72.5082L1380.19 71.5972C1379.01 72.1331 1377.83 72.6676 1376.65 73.2019L1377.07 74.1122ZM1384.15 70.9028C1385.32 70.3665 1386.5 69.827 1387.68 69.2829L1387.26 68.3751C1386.09 68.9182 1384.91 69.4569 1383.73 69.9927L1384.15 70.9028ZM1391.2 67.6353C1392.38 67.0789 1393.55 66.5165 1394.71 65.9466L1394.27 65.0489C1393.11 65.6165 1391.95 66.177 1390.78 66.7316L1391.2 67.6353ZM1398.19 64.2007C1399.35 63.6047 1400.5 62.9995 1401.64 62.3835L1401.16 61.5043C1400.03 62.1164 1398.89 62.7181 1397.73 63.311L1398.19 64.2007ZM1405.04 60.4791C1406.18 59.8231 1407.29 59.154 1408.39 58.4703L1407.86 57.622C1406.77 58.2993 1405.67 58.9626 1404.54 59.6135L1405.04 60.4791ZM1411.66 56.3381C1412.75 55.5976 1413.81 54.8396 1414.84 54.0621L1414.23 53.2637C1413.22 54.0309 1412.17 54.7796 1411.1 55.5118L1411.66 56.3381ZM1417.89 51.6209C1418.9 50.7689 1419.87 49.8937 1420.8 48.9932L1420.1 48.2751C1419.19 49.159 1418.24 50.0194 1417.25 50.858L1417.89 51.6209ZM1423.51 46.1603C1424.38 45.1733 1425.2 44.157 1425.98 43.1089L1425.17 42.5156C1424.42 43.5386 1423.61 44.532 1422.76 45.4981L1423.51 46.1603ZM1428.15 39.8365C1428.49 39.2727 1428.81 38.7002 1429.11 38.1188L1428.23 37.6537C1427.93 38.2193 1427.62 38.7765 1427.29 39.3255L1428.15 39.8365ZM1429.11 38.1188C1429.41 37.5522 1429.7 36.9711 1429.99 36.3776L1429.09 35.943C1428.81 36.527 1428.52 37.0979 1428.23 37.6537L1429.11 38.1188ZM1431.58 32.8197C1432.08 31.637 1432.55 30.4248 1433.01 29.1969L1432.07 28.8496C1431.62 30.0661 1431.15 31.2655 1430.66 32.4343L1431.58 32.8197ZM1434.3 25.5285C1434.71 24.2926 1435.1 23.0544 1435.47 21.8272L1434.52 21.5366C1434.15 22.756 1433.76 23.9856 1433.35 25.2121L1434.3 25.5285ZM1436.56 18.0958C1436.92 16.8129 1437.25 15.5587 1437.56 14.3498L1436.59 14.1014C1436.28 15.3042 1435.95 16.5518 1435.6 17.8275L1436.56 18.0958ZM1438.49 10.5779C1438.81 9.20531 1439.1 7.93353 1439.35 6.79612L1438.37 6.58391C1438.12 7.71591 1437.84 8.98172 1437.52 10.3479L1438.49 10.5779ZM1440.13 2.98523C1440.25 2.38116 1440.34 1.90714 1440.4 1.58379C1440.43 1.42211 1440.45 1.2981 1440.47 1.21432C1440.48 1.17243 1440.48 1.14061 1440.49 1.11916C1440.49 1.10843 1440.49 1.10031 1440.49 1.09481C1440.49 1.09207 1440.49 1.08998 1440.49 1.08855C1440.49 1.08784 1440.49 1.0873 1440.49 1.08692C1440.49 1.08673 1440.49 1.08658 1440.49 1.08647C1440.49 1.08642 1440.49 1.08638 1440.49 1.08635C1440.49 1.08633 1440.49 1.08631 1440.49 1.0863C1440.49 1.08629 1440.49 1.08628 1440 1C1439.51 0.91372 1439.51 0.913714 1439.51 0.913711C1439.51 0.913713 1439.51 0.913713 1439.51 0.913718C1439.51 0.913727 1439.51 0.913747 1439.51 0.913777C1439.51 0.913838 1439.51 0.91394 1439.51 0.914085C1439.51 0.914373 1439.51 0.914827 1439.51 0.915447C1439.51 0.916688 1439.51 0.918592 1439.51 0.921154C1439.51 0.926278 1439.5 0.934035 1439.5 0.944384C1439.5 0.965083 1439.49 0.996152 1439.49 1.03727C1439.47 1.1195 1439.45 1.24193 1439.42 1.40197C1439.36 1.72205 1439.27 2.19257 1439.15 2.79293L1440.13 2.98523Z" fill="black"/>
<path d="M37.0126 508.367L36.523 508.469L37.0126 508.367ZM111.711 585.97L111.211 585.963L111.711 585.97ZM0 652C0.066655 652.496 0.0666662 652.496 0.06668 652.496C0.0666881 652.496 0.0667045 652.496 0.0667207 652.496C0.0667531 652.496 0.0667959 652.496 0.0668491 652.496C0.0669557 652.495 0.067104 652.495 0.0672941 652.495C0.0676742 652.495 0.0682214 652.495 0.0689351 652.495C0.0703625 652.495 0.0724561 652.495 0.0752128 652.494C0.0807261 652.494 0.0888914 652.493 0.0996824 652.491C0.121264 652.488 0.15335 652.484 0.195728 652.478C0.280485 652.466 0.406417 652.448 0.571845 652.424C0.902699 652.377 1.39155 652.305 2.02496 652.207L1.87265 651.219C1.24265 651.316 0.757097 651.388 0.429402 651.435C0.265554 651.458 0.141174 651.476 0.0579386 651.487C0.0163208 651.493 -0.0150107 651.497 -0.0358463 651.5C-0.0462641 651.502 -0.0540578 651.503 -0.0592013 651.503C-0.0617731 651.504 -0.0636823 651.504 -0.0649257 651.504C-0.0655473 651.504 -0.0660026 651.504 -0.0662909 651.504C-0.0664351 651.504 -0.0665376 651.504 -0.0665983 651.504C-0.0666286 651.504 -0.0666485 651.504 -0.066658 651.504C-0.0666627 651.504 -0.0666619 651.504 -0.0666643 651.504C-0.0666609 651.504 -0.066655 651.504 0 652ZM6.06845 651.545C7.27138 651.338 8.63388 651.095 10.1362 650.815L9.95254 649.832C8.45512 650.112 7.09729 650.354 5.89878 650.56L6.06845 651.545ZM14.1406 650.04C15.4083 649.786 16.743 649.511 18.1369 649.213L17.9284 648.235C16.5387 648.532 15.208 648.806 13.9443 649.059L14.1406 650.04ZM22.1322 648.335C23.425 648.043 24.7566 647.733 26.1219 647.406L25.8888 646.433C24.5278 646.759 23.2003 647.068 21.9115 647.36L22.1322 648.335ZM30.0859 646.429C31.3779 646.102 32.6936 645.759 34.0292 645.402L33.7708 644.436C32.4396 644.792 31.1282 645.133 29.8404 645.459L30.0859 646.429ZM37.9672 644.32C39.2637 643.954 40.5748 643.574 41.8973 643.179L41.6116 642.221C40.2939 642.614 38.9875 642.993 37.6954 643.357L37.9672 644.32ZM45.815 641.979C47.1038 641.573 48.4002 641.154 49.7012 640.721L49.3855 639.772C48.0897 640.203 46.7985 640.621 45.5146 641.025L45.815 641.979ZM53.5669 639.398C54.8484 638.947 56.1319 638.482 57.4144 638.004L57.065 637.067C55.7885 637.543 54.5109 638.006 53.2348 638.455L53.5669 639.398ZM61.2351 636.537C62.5016 636.036 63.7647 635.521 65.0218 634.992L64.634 634.07C63.3838 634.596 62.1273 635.108 60.8672 635.607L61.2351 636.537ZM68.7768 633.361C70.0243 632.802 71.263 632.228 72.4904 631.64L72.0581 630.738C70.8387 631.323 69.6077 631.893 68.3677 632.449L68.7768 633.361ZM76.1528 629.822C77.3744 629.193 78.5816 628.55 79.7715 627.89L79.2868 627.015C78.1063 627.67 76.9083 628.308 75.6954 628.932L76.1528 629.822ZM83.324 625.842C84.5033 625.134 85.6616 624.41 86.7958 623.668L86.2485 622.831C85.1256 623.565 83.9782 624.283 82.8094 624.985L83.324 625.842ZM90.1712 621.357C91.296 620.55 92.3916 619.724 93.4546 618.879L92.8323 618.096C91.7828 618.93 90.7003 619.747 89.5882 620.545L90.1712 621.357ZM96.6025 616.232C97.637 615.31 98.6325 614.367 99.5851 613.402L98.8735 612.7C97.9367 613.649 96.9567 614.577 95.9373 615.485L96.6025 616.232ZM102.367 610.375C103.266 609.321 104.115 608.242 104.907 607.138L104.095 606.555C103.319 607.635 102.488 608.692 101.606 609.727L102.367 610.375ZM107.154 603.684C107.853 602.488 108.488 601.264 109.053 600.013L108.142 599.601C107.591 600.819 106.973 602.012 106.291 603.179L107.154 603.684ZM110.541 596.157C110.96 594.851 111.305 593.518 111.571 592.156L110.589 591.965C110.332 593.287 109.996 594.582 109.589 595.851L110.541 596.157ZM112.118 588.065C112.169 587.376 112.2 586.68 112.211 585.977L111.211 585.963C111.201 586.645 111.171 587.322 111.121 587.991L112.118 588.065ZM112.211 585.977C112.221 585.269 112.213 584.574 112.187 583.892L111.187 583.93C111.213 584.594 111.221 585.272 111.211 585.963L112.211 585.977ZM111.795 579.809C111.577 578.417 111.276 577.084 110.899 575.803L109.94 576.085C110.304 577.323 110.595 578.615 110.807 579.964L111.795 579.809ZM109.472 571.95C108.901 570.684 108.249 569.476 107.524 568.32L106.676 568.851C107.378 569.971 108.009 571.139 108.561 572.361L109.472 571.95ZM105.124 564.984C104.264 563.929 103.339 562.921 102.358 561.952L101.656 562.663C102.613 563.609 103.513 564.591 104.35 565.616L105.124 564.984ZM99.3131 559.208C98.2758 558.35 97.1939 557.524 96.0747 556.723L95.493 557.537C96.5954 558.325 97.6585 559.137 98.6759 559.979L99.3131 559.208ZM92.6923 554.447C91.558 553.725 90.3951 553.023 89.2097 552.335L88.7077 553.2C89.8831 553.882 91.0343 554.577 92.1556 555.291L92.6923 554.447ZM85.66 550.347C84.4769 549.705 83.2778 549.073 82.0682 548.446L81.608 549.334C82.8135 549.958 84.0069 550.588 85.1832 551.226L85.66 550.347ZM78.4544 546.598C77.2522 545.989 76.043 545.381 74.8353 544.771L74.3845 545.664C75.5944 546.275 76.8009 546.881 78.0027 547.49L78.4544 546.598ZM71.2262 542.935C70.025 542.318 68.8285 541.694 67.6414 541.061L67.1705 541.943C68.3634 542.58 69.5646 543.206 70.7691 543.825L71.2262 542.935ZM64.0976 539.118C62.9203 538.452 61.7578 537.773 60.615 537.076L60.0943 537.93C61.2478 538.633 62.42 539.318 63.6056 539.988L64.0976 539.118ZM57.2181 534.905C56.0965 534.152 55.0011 533.376 53.937 532.574L53.335 533.373C54.415 534.187 55.5255 534.973 56.6606 535.735L57.2181 534.905ZM50.8092 530.053C49.7922 529.174 48.8137 528.262 47.8793 527.315L47.1673 528.017C48.1216 528.985 49.1196 529.914 50.1552 530.809L50.8092 530.053ZM45.1985 524.34C44.3549 523.311 43.5613 522.24 42.8234 521.124L41.9892 521.676C42.7469 522.822 43.5609 523.92 44.425 524.974L45.1985 524.34ZM40.8053 517.681C40.2053 516.514 39.6619 515.301 39.1802 514.037L38.2457 514.393C38.7408 515.692 39.2994 516.939 39.9161 518.138L40.8053 517.681ZM37.9636 510.236C37.7948 509.592 37.6408 508.935 37.5022 508.266L36.523 508.469C36.6651 509.155 36.8231 509.828 36.9963 510.489L37.9636 510.236ZM37.5022 508.266C37.3635 507.597 37.2416 506.934 37.1359 506.276L36.1486 506.434C36.2566 507.107 36.3813 507.785 36.523 508.469L37.5022 508.266ZM36.6957 502.395C36.6084 501.059 36.5907 499.747 36.6396 498.458L35.6404 498.42C35.5901 499.744 35.6083 501.09 35.6978 502.461L36.6957 502.395ZM36.9951 494.585C37.1872 493.277 37.4503 491.994 37.7813 490.736L36.8143 490.481C36.4738 491.775 36.2032 493.095 36.0057 494.44L36.9951 494.585ZM38.9818 487.017C39.4502 485.797 39.9847 484.601 40.5822 483.429L39.6912 482.975C39.0783 484.177 38.5295 485.405 38.0483 486.658L38.9818 487.017ZM42.5259 480.037C43.2233 478.944 43.9773 477.872 44.7852 476.822L43.9925 476.212C43.1676 477.285 42.3967 478.38 41.6829 479.499L42.5259 480.037ZM47.3141 473.793C48.1778 472.836 49.0874 471.897 50.0406 470.977L49.3461 470.258C48.3772 471.193 47.4516 472.148 46.5717 473.123L47.3141 473.793ZM52.9885 468.306C53.9683 467.471 54.9848 466.651 56.036 465.848L55.4287 465.053C54.3641 465.867 53.3337 466.697 52.3396 467.545L52.9885 468.306ZM59.2493 463.514C60.3165 462.776 61.4132 462.053 62.5378 461.344L62.0044 460.498C60.8685 461.215 59.76 461.945 58.6808 462.691L59.2493 463.514ZM65.9338 459.293C67.0619 458.64 68.2139 457.999 69.3881 457.371L68.9165 456.49C67.7328 457.123 66.571 457.769 65.4327 458.428L65.9338 459.293ZM72.9156 455.554C74.0867 454.973 75.2768 454.403 76.4845 453.844L76.0647 452.937C74.8489 453.499 73.6506 454.073 72.471 454.659L72.9156 455.554ZM80.111 452.222C81.3129 451.702 82.5298 451.193 83.7607 450.693L83.3846 449.767C82.147 450.269 80.923 450.782 79.714 451.305L80.111 452.222ZM87.4636 449.236C88.6883 448.769 89.925 448.311 91.1723 447.862L90.8337 446.921C89.5806 447.372 88.338 447.832 87.107 448.302L87.4636 449.236ZM94.9338 446.547C96.1767 446.124 97.4286 445.711 98.6885 445.306L98.3824 444.354C97.1175 444.76 95.8603 445.176 94.6121 445.6L94.9338 446.547ZM102.491 444.116C103.75 443.733 105.015 443.357 106.286 442.99L106.009 442.029C104.733 442.398 103.463 442.775 102.199 443.159L102.491 444.116ZM110.112 441.913C111.387 441.563 112.666 441.221 113.948 440.886L113.695 439.919C112.409 440.254 111.126 440.597 109.848 440.948L110.112 441.913ZM117.796 439.907C119.082 439.588 120.37 439.277 121.658 438.972L121.429 437.999C120.136 438.304 118.845 438.617 117.555 438.937L117.796 439.907ZM125.529 438.08C126.822 437.789 128.115 437.506 129.407 437.229L129.197 436.251C127.902 436.529 126.606 436.813 125.31 437.105L125.529 438.08ZM133.301 436.414C134.598 436.15 135.893 435.892 137.184 435.641L136.993 434.659C135.699 434.911 134.401 435.169 133.101 435.435L133.301 436.414ZM141.105 434.896C142.407 434.655 143.705 434.42 144.997 434.192L144.824 433.207C143.529 433.436 142.228 433.671 140.922 433.913L141.105 434.896ZM148.933 433.514C150.242 433.294 151.545 433.08 152.838 432.873L152.68 431.886C151.384 432.093 150.079 432.307 148.767 432.528L148.933 433.514ZM156.782 432.258C158.098 432.058 159.405 431.864 160.699 431.677L160.556 430.687C159.259 430.875 157.951 431.069 156.631 431.269L156.782 432.258ZM164.65 431.12C165.973 430.939 167.281 430.764 168.573 430.596L168.444 429.604C167.15 429.773 165.839 429.948 164.514 430.129L164.65 431.12ZM172.537 430.094C173.862 429.931 175.169 429.774 176.453 429.625L176.337 428.632C175.051 428.781 173.743 428.938 172.414 429.101L172.537 430.094ZM180.44 429.175C181.766 429.03 183.064 428.892 184.332 428.762L184.23 427.767C182.959 427.898 181.659 428.035 180.331 428.181L180.44 429.175ZM188.347 428.362C189.707 428.231 191.026 428.109 192.3 427.995L192.211 426.999C190.934 427.113 189.613 427.235 188.251 427.366L188.347 428.362ZM196.201 427.659C197.611 427.542 198.953 427.436 200.221 427.34L200.145 426.343C198.875 426.439 197.531 426.545 196.119 426.662L196.201 427.659ZM204.207 427.054C205.68 426.954 207.007 426.87 208.174 426.8L208.114 425.802C206.944 425.872 205.615 425.956 204.139 426.056L204.207 427.054ZM212.087 426.586C212.718 426.555 213.201 426.533 213.527 426.52C213.689 426.513 213.812 426.508 213.895 426.504C213.936 426.503 213.967 426.502 213.988 426.501C213.998 426.5 214.006 426.5 214.011 426.5C214.013 426.5 214.015 426.5 214.016 426.5C214.017 426.5 214.018 426.5 214.018 426.5C214.018 426.5 214.018 426.5 214.018 426.5C214.018 426.5 214.018 426.5 214.018 426.5C214.018 426.5 214.018 426.5 214.018 426.5C214.018 426.5 214.018 426.5 214 426C213.982 425.5 213.982 425.5 213.982 425.5C213.982 425.5 213.982 425.5 213.982 425.5C213.982 425.5 213.982 425.5 213.982 425.5C213.981 425.5 213.981 425.5 213.981 425.5C213.981 425.5 213.98 425.5 213.98 425.5C213.978 425.5 213.976 425.501 213.973 425.501C213.968 425.501 213.96 425.501 213.95 425.502C213.928 425.502 213.897 425.504 213.855 425.505C213.772 425.509 213.648 425.514 213.484 425.521C213.157 425.534 212.671 425.556 212.038 425.587L212.087 426.586Z" fill="black"/>
</svg>
