<svg width="60" height="60" viewBox="0 0 60 60" fill="none" xmlns="http://www.w3.org/2000/svg">
<path d="M55 11.675V41.85C55 44.25 53.05 46.5 50.65 46.8L49.825 46.9001C44.375 47.6251 35.9749 50.4 31.1749 53.05C30.5249 53.425 29.45 53.425 28.775 53.05L28.6749 53.0001C23.8749 50.3751 15.5001 47.6251 10.0751 46.9001L9.34998 46.8C6.94998 46.5 5 44.25 5 41.85V11.65C5 8.67496 7.42493 6.42498 10.3999 6.67498C15.6499 7.09998 23.5999 9.75005 28.0499 12.5251L28.6749 12.9C29.3999 13.35 30.6001 13.35 31.3251 12.9L31.75 12.625C33.325 11.65 35.325 10.675 37.5 9.79998V20L42.5 16.675L47.5 20V6.9501C48.175 6.8251 48.825 6.75001 49.425 6.70001H49.575C52.55 6.45001 55 8.67498 55 11.675Z" stroke="#7561DA" stroke-width="2" stroke-linecap="round" stroke-linejoin="round"/>
<path d="M30 13.725V51.225" stroke="#7561DA" stroke-width="2" stroke-linecap="round" stroke-linejoin="round"/>
<path d="M47.5 6.95007V20L42.5 16.675L37.5 20V9.79996C40.775 8.49996 44.425 7.45007 47.5 6.95007Z" stroke="#7561DA" stroke-width="2" stroke-linecap="round" stroke-linejoin="round"/>
</svg>
