<svg width="20" height="18" viewBox="0 0 20 18" fill="none" xmlns="http://www.w3.org/2000/svg">
<path fill-rule="evenodd" clip-rule="evenodd" d="M9.99982 0C12.5808 0 14.8548 1.661 15.6748 4.045C18.1138 4.376 19.9998 6.472 19.9998 9C19.9998 10.221 19.5558 11.396 18.7498 12.309C18.5518 12.532 18.2768 12.647 17.9998 12.647C17.7648 12.647 17.5288 12.565 17.3378 12.397C16.9248 12.03 16.8848 11.399 17.2508 10.984C17.7338 10.438 17.9998 9.732 17.9998 9C17.9998 7.346 16.6538 6 14.9998 6H14.8998C14.4238 6 14.0138 5.664 13.9198 5.197C13.5458 3.345 11.8978 2 9.99982 2C8.10282 2 6.45382 3.345 6.08082 5.197C5.98682 5.664 5.57582 6 5.09982 6H4.99982C3.34582 6 1.99982 7.346 1.99982 9C1.99982 9.732 2.26582 10.438 2.74982 10.984C3.11482 11.399 3.07582 12.03 2.66182 12.397C2.24682 12.763 1.61582 12.722 1.25082 12.309C0.443817 11.396 -0.000183105 10.221 -0.000183105 9C-0.000183105 6.472 1.88582 4.376 4.32482 4.045C5.14582 1.661 7.41982 0 9.99982 0ZM11.0002 14.6439L12.3052 13.3839C12.7032 13.0009 13.3362 13.0119 13.7192 13.4089C14.1032 13.8069 14.0922 14.4399 13.6952 14.8229L10.6952 17.7199C10.5002 17.9059 10.2502 17.9999 10.0002 17.9999C9.74422 17.9999 9.48822 17.9029 9.29322 17.7069L6.29322 14.7069C5.90222 14.3169 5.90222 13.6839 6.29322 13.2929C6.68322 12.9029 7.31622 12.9029 7.70722 13.2929L9.00022 14.5859V8.9999C9.00022 8.4469 9.44822 7.9999 10.0002 7.9999C10.5522 7.9999 11.0002 8.4469 11.0002 8.9999V14.6439Z" fill="white"/>
</svg>
