<svg width="266" height="266" viewBox="0 0 266 266" fill="none" xmlns="http://www.w3.org/2000/svg">
<path d="M177.152 161.956C186.785 159.996 195.939 156.158 204.089 150.66C212.24 145.163 219.228 138.113 224.654 129.915C230.08 121.717 233.838 112.531 235.714 102.88C237.59 93.2294 237.547 83.3039 235.587 73.67L162.226 88.5954L177.152 161.956Z" fill="#F0F3FF"/>
<path d="M118.716 250.242C128.35 248.282 137.504 244.444 145.654 238.946C153.805 233.449 160.792 226.4 166.219 218.202C171.645 210.003 175.403 200.817 177.279 191.166C179.155 181.516 179.112 171.59 177.152 161.956L103.791 176.882L118.716 250.242Z" fill="#F1F7F5"/>
<circle cx="215.912" cy="187.611" r="37.4318" transform="rotate(78.5 215.912 187.611)" fill="#FDF4ED"/>
<circle cx="131.932" cy="132.026" r="37.4318" transform="rotate(78.5 131.932 132.026)" fill="#F7F1FE"/>
</svg>
