<svg width="40" height="40" viewBox="0 0 40 40" fill="none" xmlns="http://www.w3.org/2000/svg">
<circle cx="20" cy="20" r="20" fill="#FFC356"/>
<path d="M25 15.9666C24.95 15.9583 24.8917 15.9583 24.8417 15.9666C23.6917 15.925 22.775 14.9833 22.775 13.8166C22.775 12.625 23.7334 11.6666 24.925 11.6666C26.1167 11.6666 27.075 12.6333 27.075 13.8166C27.0667 14.9833 26.15 15.925 25 15.9666Z" stroke="white" stroke-width="1.5" stroke-linecap="round" stroke-linejoin="round"/>
<path d="M24.1417 22.0333C25.2834 22.225 26.5417 22.025 27.425 21.4333C28.6 20.65 28.6 19.3666 27.425 18.5833C26.5334 17.9916 25.2584 17.7916 24.1167 17.9916" stroke="white" stroke-width="1.5" stroke-linecap="round" stroke-linejoin="round"/>
<path d="M14.9749 15.9666C15.0249 15.9583 15.0832 15.9583 15.1332 15.9666C16.2832 15.925 17.1999 14.9833 17.1999 13.8166C17.1999 12.625 16.2416 11.6666 15.0499 11.6666C13.8582 11.6666 12.8999 12.6333 12.8999 13.8166C12.9082 14.9833 13.8249 15.925 14.9749 15.9666Z" stroke="white" stroke-width="1.5" stroke-linecap="round" stroke-linejoin="round"/>
<path d="M15.8333 22.0333C14.6916 22.225 13.4333 22.025 12.55 21.4333C11.375 20.65 11.375 19.3666 12.55 18.5833C13.4416 17.9916 14.7166 17.7916 15.8583 17.9916" stroke="white" stroke-width="1.5" stroke-linecap="round" stroke-linejoin="round"/>
<path d="M20 22.1916C19.95 22.1833 19.8917 22.1833 19.8417 22.1916C18.6917 22.1499 17.775 21.2083 17.775 20.0416C17.775 18.8499 18.7334 17.8916 19.925 17.8916C21.1167 17.8916 22.075 18.8583 22.075 20.0416C22.0667 21.2083 21.15 22.1583 20 22.1916Z" stroke="white" stroke-width="1.5" stroke-linecap="round" stroke-linejoin="round"/>
<path d="M17.575 24.8166C16.4 25.5999 16.4 26.8832 17.575 27.6666C18.9083 28.5582 21.0916 28.5582 22.425 27.6666C23.6 26.8832 23.6 25.5999 22.425 24.8166C21.1 23.9332 18.9083 23.9332 17.575 24.8166Z" stroke="white" stroke-width="1.5" stroke-linecap="round" stroke-linejoin="round"/>
</svg>
