<svg width="60" height="60" viewBox="0 0 60 60" fill="none" xmlns="http://www.w3.org/2000/svg">
<path d="M14.25 12C14.25 10.3432 15.5932 9 17.25 9H44.25C45.9068 9 47.25 10.3432 47.25 12V48C47.25 49.6568 45.9068 51 44.25 51H17.25C15.5932 51 14.25 49.6568 14.25 48V12Z" stroke="#FFC356" stroke-width="1.5" stroke-linecap="round" stroke-linejoin="round"/>
<path d="M15.75 33H12.75M15.75 21H12.75H15.75ZM15.75 15H12.75H15.75ZM15.75 27H12.75H15.75ZM15.75 39H12.75H15.75ZM15.75 45H12.75H15.75Z" stroke="#FFC356" stroke-width="1.5" stroke-linecap="round" stroke-linejoin="round"/>
<path d="M21.75 18H39.75" stroke="#FFC356" stroke-width="1.5" stroke-linecap="round" stroke-linejoin="round"/>
<path d="M21.75 24H33.75" stroke="#FFC356" stroke-width="1.5" stroke-linecap="round" stroke-linejoin="round"/>
<path d="M21.75 30H39.75" stroke="#FFC356" stroke-width="1.5" stroke-linecap="round" stroke-linejoin="round"/>
<path d="M21.75 36H33.75" stroke="#FFC356" stroke-width="1.5" stroke-linecap="round" stroke-linejoin="round"/>
<path d="M21.75 42H39.75" stroke="#FFC356" stroke-width="1.5" stroke-linecap="round" stroke-linejoin="round"/>
</svg>
