<svg width="16" height="16" viewBox="0 0 16 16" fill="none" xmlns="http://www.w3.org/2000/svg">
<path d="M13.3334 5.49992V11.9999C13.3334 13.9999 12.1401 14.6666 10.6667 14.6666H5.33341C3.86008 14.6666 2.66675 13.9999 2.66675 11.9999V5.49992C2.66675 3.33325 3.86008 2.83325 5.33341 2.83325C5.33341 3.24659 5.50006 3.61992 5.7734 3.89325C6.04673 4.16658 6.42008 4.33325 6.83341 4.33325H9.16675C9.99341 4.33325 10.6667 3.65992 10.6667 2.83325C12.1401 2.83325 13.3334 3.33325 13.3334 5.49992Z" stroke="#4F4F4F" stroke-linecap="round" stroke-linejoin="round"/>
<path d="M10.6666 2.83325C10.6666 3.65992 9.99325 4.33325 9.16659 4.33325H6.83325C6.41992 4.33325 6.04657 4.16658 5.77323 3.89325C5.4999 3.61992 5.33325 3.24659 5.33325 2.83325C5.33325 2.00659 6.00659 1.33325 6.83325 1.33325H9.16659C9.57992 1.33325 9.95327 1.49992 10.2266 1.77325C10.4999 2.04659 10.6666 2.41992 10.6666 2.83325Z" stroke="#4F4F4F" stroke-linecap="round" stroke-linejoin="round"/>
<path d="M5.33325 8.66675H7.99992" stroke="#4F4F4F" stroke-linecap="round" stroke-linejoin="round"/>
<path d="M5.33325 11.3333H10.6666" stroke="#4F4F4F" stroke-linecap="round" stroke-linejoin="round"/>
</svg>
