<svg width="40" height="40" viewBox="0 0 40 40" fill="none" xmlns="http://www.w3.org/2000/svg">
<circle cx="20" cy="20" r="20" fill="#f6f3fe"/>
<path d="M11.6558 20.0127V28.3698H20.0129V25.0269H20.0901C20.4087 25.0269 20.7147 25.1361 21.0213 25.2455C21.2354 25.3218 21.4498 25.3983 21.6688 25.4377C21.7421 25.4509 21.8171 25.4577 21.8932 25.4577C22.3457 25.4577 22.7638 25.2163 22.99 24.8245C23.2163 24.4326 23.2163 23.9497 22.99 23.5579C22.7638 23.166 22.3457 22.9246 21.8932 22.9246C21.8171 22.9246 21.7421 22.9314 21.6688 22.9446C21.4498 22.984 21.2354 23.0605 21.0213 23.1369C20.7147 23.2463 20.4087 23.3555 20.0901 23.3555H20.0129V20.0127" stroke="#7561DA" stroke-linecap="round" stroke-linejoin="round"/>
<path d="M20.0129 28.3704H28.3701V20.0132H25.0271V19.936C25.0271 19.6174 25.1363 19.3113 25.2457 19.0047C25.3221 18.7906 25.3986 18.5762 25.438 18.3571C25.4512 18.2838 25.458 18.2088 25.458 18.1328C25.458 17.6803 25.2166 17.2621 24.8248 17.0359C24.4329 16.8096 23.9501 16.8096 23.5582 17.0359C23.1663 17.2621 22.9249 17.6803 22.9249 18.1328C22.9249 18.2088 22.9317 18.2838 22.9449 18.3571C22.9843 18.5761 23.0608 18.7905 23.1372 19.0046C23.2465 19.3111 23.3557 19.6172 23.3557 19.9358V20.0132H20.0129" stroke="#7561DA" stroke-linecap="round" stroke-linejoin="round"/>
<path d="M28.37 20.0124V11.6553H20.0129V14.9516H19.8892C19.5707 14.9516 19.2646 14.8424 18.958 14.7331C18.7439 14.6566 18.5295 14.5802 18.3105 14.5408C18.2372 14.5276 18.1621 14.5208 18.0862 14.5208C17.6337 14.5208 17.2155 14.7622 16.9893 15.1541C16.763 15.5459 16.763 16.0287 16.9893 16.4206C17.2155 16.8125 17.6337 17.0539 18.0862 17.0539C18.1621 17.0539 18.2372 17.0471 18.3105 17.0339C18.5295 16.9945 18.7439 16.918 18.958 16.8416C19.2646 16.7323 19.5707 16.6231 19.8892 16.6231H20.0129V20.0124" stroke="#7561DA" stroke-linecap="round" stroke-linejoin="round"/>
<path d="M20.0129 11.6553H11.6558V20.0124H14.9521V20.0431C14.9521 20.3617 14.8429 20.6678 14.7336 20.9743C14.6572 21.1884 14.5807 21.4028 14.5413 21.6218C14.5281 21.6951 14.5213 21.7701 14.5213 21.8461C14.5213 22.2986 14.7627 22.7167 15.1546 22.943C15.5465 23.1692 16.0293 23.1692 16.4212 22.943C16.8131 22.7167 17.0545 22.2986 17.0545 21.8461C17.0545 21.7701 17.0476 21.6951 17.0344 21.6218C16.9951 21.4027 16.9186 21.1883 16.8421 20.9742C16.7328 20.6676 16.6235 20.3615 16.6235 20.0429V20.0124H20.0129" stroke="#7561DA" stroke-linecap="round" stroke-linejoin="round"/>
</svg>
