<svg width="1227" height="636" viewBox="0 0 1227 636" fill="none" xmlns="http://www.w3.org/2000/svg">
<path d="M0 30.48C0 24.4571 0 21.4457 0.537602 18.9487C2.52304 9.7267 9.7267 2.52304 18.9487 0.537602C21.4457 0 24.4572 0 30.48 0H1196.52C1202.54 0 1205.55 0 1208.05 0.537602C1217.27 2.52304 1224.48 9.7267 1226.46 18.9487C1227 21.4457 1227 24.4572 1227 30.48V604.321C1227 610.731 1227 613.937 1226.41 616.54C1224.24 626.175 1216.39 633.498 1206.63 634.992C1203.99 635.396 1200.79 635.173 1194.4 634.727L28.3597 553.419C22.7173 553.025 19.8962 552.828 17.5458 552.172C8.88408 549.754 2.30123 542.696 0.491164 533.887C0 531.497 0 528.669 0 523.012V30.48Z" fill="#FBF5F1"/>
</svg>
