<svg width="16" height="16" viewBox="0 0 16 16" fill="none" xmlns="http://www.w3.org/2000/svg">
<path d="M12.6667 12.0001C13.2855 12.0001 13.879 11.7542 14.3166 11.3166C14.7542 10.879 15 10.2856 15 9.66672C15 9.04788 14.7542 8.45439 14.3166 8.0168C13.879 7.57922 13.2855 7.33338 12.6667 7.33338H12C12.0973 6.90002 12.0987 6.45366 12.0044 6.01978C11.91 5.5859 11.7215 5.17301 11.4498 4.80467C11.1781 4.43633 10.8285 4.11976 10.4209 3.87304C10.0132 3.62631 9.55558 3.45426 9.07407 3.36672C8.59255 3.27917 8.0966 3.27783 7.61451 3.36279C7.13242 3.44775 6.67365 3.61733 6.26438 3.86186C5.43784 4.3557 4.86312 5.12483 4.66666 6.00005C3.95596 5.97158 3.25702 6.18032 2.68951 6.59052C2.12199 7.00071 1.72121 7.58686 1.55577 8.2486C1.39034 8.91034 1.47055 9.6065 1.78266 10.2179C2.09477 10.8293 2.61938 11.3179 3.26666 11.6001" stroke="#4F4F4F" stroke-linecap="round" stroke-linejoin="round"/>
<path d="M8 8.66675V14.6667" stroke="#4F4F4F" stroke-linecap="round" stroke-linejoin="round"/>
<path d="M6 12.6667L8 14.6667L10 12.6667" stroke="#4F4F4F" stroke-linecap="round" stroke-linejoin="round"/>
</svg>
